<svg width="660" height="660" viewBox="0 0 660 660" fill="none" xmlns="http://www.w3.org/2000/svg">
<circle cx="330" cy="330" r="329.5" stroke="#B1BAC5"/>
<path d="M648.755 415.41C667.557 345.241 662.68 270.829 634.88 203.714C607.08 136.6 557.912 80.5337 495 44.2116L493.68 46.4979C556.088 82.5295 604.864 138.147 632.441 204.725C660.018 271.302 664.857 345.119 646.205 414.727L648.755 415.41Z" fill="#BF8A3B"/>
<path d="M96.6549 563.345C148.022 614.713 214.904 647.695 286.926 657.177C358.949 666.659 432.088 652.111 495 615.788L493.68 613.502C431.272 649.534 358.718 663.966 287.271 654.559C215.824 645.153 149.478 612.435 98.5217 561.479L96.6549 563.345Z" fill="#BF8A3B"/>
<path d="M244.59 11.2446C174.421 30.0464 112.417 71.4763 68.1935 129.109C23.9705 186.741 0.00010419 257.356 9.32208e-05 330L2.64011 330C2.64012 257.937 26.4187 187.887 70.2879 130.716C114.157 73.5445 175.665 32.446 245.273 13.7947L244.59 11.2446Z" fill="#BF8A3B"/>
</svg>
